<?xml version="1.0" standalone="no"?>
<!DOCTYPE svg PUBLIC "-//W3C//DTD SVG 20010904//EN"
 "http://www.w3.org/TR/2001/REC-SVG-20010904/DTD/svg10.dtd">
<svg version="1.0" xmlns="http://www.w3.org/2000/svg"
 width="150.000000pt" height="150.000000pt" viewBox="0 0 150.000000 150.000000"
 preserveAspectRatio="xMidYMid meet">
<metadata>
Created by potrace 1.15, written by Peter Selinger 2001-2017
</metadata>
<g transform="translate(0.000000,150.000000) scale(0.100000,-0.100000)"
fill="#000000" stroke="none">
<path d="M70 1255 c0 -38 3 -45 20 -45 15 0 20 -7 20 -25 0 -18 -5 -25 -20
-25 -15 0 -20 -7 -20 -25 0 -18 5 -25 20 -25 11 0 20 -7 20 -15 0 -8 -9 -15
-20 -15 -13 0 -20 -7 -20 -20 0 -13 7 -20 20 -20 11 0 20 -7 20 -15 0 -8 -9
-15 -20 -15 -15 0 -20 -7 -20 -25 0 -18 5 -25 20 -25 11 0 20 -7 20 -15 0 -8
-9 -15 -20 -15 -13 0 -20 -7 -20 -20 0 -13 7 -20 20 -20 11 0 20 -7 20 -15 0
-8 -9 -15 -20 -15 -13 0 -20 -7 -20 -20 0 -13 7 -20 20 -20 11 0 20 -7 20 -15
0 -8 -9 -15 -20 -15 -15 0 -20 -7 -20 -25 0 -18 5 -25 20 -25 11 0 20 -4 20
-10 0 -5 -9 -10 -20 -10 -15 0 -20 -7 -20 -25 0 -18 5 -25 20 -25 11 0 20 -7
20 -15 0 -8 -9 -15 -20 -15 -13 0 -20 -7 -20 -20 0 -13 7 -20 20 -20 11 0 20
-7 20 -15 0 -8 -9 -15 -20 -15 -15 0 -20 -7 -20 -25 0 -18 5 -25 20 -25 26 0
26 -16 0 -23 -27 -7 -27 -47 0 -47 11 0 20 -7 20 -15 0 -8 -9 -15 -20 -15 -15
0 -20 -7 -20 -25 0 -18 5 -25 20 -25 11 0 20 -4 20 -10 0 -5 -9 -10 -20 -10
-15 0 -20 -7 -20 -25 0 -18 5 -25 20 -25 11 0 20 -7 20 -15 0 -8 -9 -15 -20
-15 -13 0 -20 -7 -20 -20 0 -20 7 -20 294 -20 289 0 294 0 289 20 -5 19 -14
20 -259 20 -218 0 -254 2 -254 15 0 12 37 15 253 17 l252 3 3 23 3 22 -255 0
c-164 0 -256 4 -256 10 0 6 91 10 254 10 206 0 259 3 282 15 36 19 81 19 114
0 14 -8 42 -14 63 -15 20 0 37 -4 37 -10 0 -5 -11 -10 -25 -10 -16 0 -25 -6
-25 -15 0 -9 11 -21 25 -27 14 -6 25 -15 25 -20 0 -13 18 -9 40 9 25 21 25 39
3 53 -17 10 -17 10 0 20 21 13 23 50 2 50 -8 0 -15 7 -15 15 0 8 7 15 15 15
20 0 20 39 0 46 -8 4 -15 10 -15 15 0 5 7 9 15 9 20 0 20 39 0 46 -8 4 -15 12
-15 20 0 8 7 14 15 14 8 0 15 9 15 20 0 11 -7 20 -15 20 -8 0 -15 7 -15 15 0
8 -7 15 -15 15 -8 0 -15 -6 -15 -14 0 -8 -9 -17 -19 -21 -31 -9 -35 -35 -6
-35 16 0 25 -6 25 -15 0 -11 -11 -15 -39 -15 -22 0 -44 -6 -51 -15 -16 -19
-79 -19 -104 0 -16 12 -68 15 -288 15 -232 0 -268 2 -268 15 0 13 35 15 254
15 209 0 255 3 259 14 3 8 3 17 0 20 -4 3 -120 6 -260 6 -217 0 -253 2 -253
15 0 13 38 15 263 17 l262 3 3 23 3 22 -265 0 c-171 0 -266 4 -266 10 0 6 98
10 273 10 276 0 297 3 297 37 0 10 -58 13 -285 13 -247 0 -285 2 -285 15 0 13
43 15 326 15 311 0 327 1 351 20 l26 20 -352 0 c-305 0 -351 2 -351 15 0 13
48 15 375 15 243 0 375 -4 375 -10 0 -5 7 -10 15 -10 8 0 15 5 15 10 0 6 7 10
15 10 8 0 15 9 15 20 0 11 -7 20 -15 20 -19 0 -19 26 0 34 20 7 20 46 0 46 -8
0 -15 7 -15 15 0 8 7 15 15 15 8 0 15 9 15 20 0 11 -7 20 -15 20 -8 0 -15 7
-15 15 0 8 7 15 15 15 20 0 20 39 0 46 -19 8 -19 50 0 58 10 3 15 19 15 46 l0
40 -440 0 -440 0 0 -45z m820 -70 l0 -25 -375 0 -375 0 0 25 0 25 375 0 375 0
0 -25z m0 -90 c0 -13 -48 -15 -375 -15 -327 0 -375 2 -375 15 0 13 48 15 375
15 327 0 375 -2 375 -15z m0 -70 c0 -13 -48 -15 -375 -15 -327 0 -375 2 -375
15 0 13 48 15 375 15 327 0 375 -2 375 -15z m0 -80 c0 -13 -48 -15 -375 -15
-327 0 -375 2 -375 15 0 13 48 15 375 15 327 0 375 -2 375 -15z m-29 -425 c16
0 29 -4 29 -10 0 -6 -132 -10 -375 -10 -239 0 -375 4 -375 10 0 9 507 20 634
13 32 -2 72 -3 87 -3z m29 -85 c0 -13 -48 -15 -375 -15 -327 0 -375 2 -375 15
0 13 48 15 375 15 327 0 375 -2 375 -15z"/>
<path d="M936 821 c-3 -4 -21 -11 -40 -14 -31 -5 -102 -44 -133 -74 -7 -6 -24
-33 -38 -59 -24 -44 -24 -48 -9 -66 10 -10 23 -18 29 -18 7 0 37 29 66 65 35
42 66 69 88 76 40 14 219 8 229 -8 4 -6 17 -13 30 -17 30 -10 28 -24 -5 -28
-25 -3 -28 -8 -31 -44 l-3 -41 53 -6 c75 -9 141 -8 158 3 10 6 15 35 18 109
l4 101 -36 0 c-31 0 -36 -3 -36 -22 0 -13 -4 -29 -9 -37 -7 -10 -11 -9 -23 7
-7 11 -26 24 -41 27 -15 4 -27 11 -27 16 0 5 -18 12 -40 15 -22 4 -40 10 -40
15 0 12 -157 12 -164 0z"/>
<path d="M1190 350 c0 -5 -16 -10 -35 -10 -33 0 -35 -2 -35 -32 0 -46 13 -62
44 -56 27 5 27 5 7 -14 -11 -10 -34 -21 -51 -24 -16 -4 -30 -10 -30 -15 0 -5
-34 -9 -75 -9 -41 0 -75 4 -75 9 0 5 -13 11 -30 14 -32 7 -65 32 -120 89 -34
37 -72 49 -85 28 -23 -37 77 -164 146 -185 13 -4 27 -13 31 -19 10 -16 256
-15 266 1 4 6 20 15 35 18 15 4 27 11 27 16 0 5 6 9 14 9 8 0 22 10 30 21 14
21 15 21 21 -15 7 -33 10 -36 42 -36 l35 0 -4 93 c-4 117 -12 127 -97 127 -34
0 -61 -4 -61 -10z"/>
</g>
</svg>
