<?xml version="1.0" standalone="no"?>
<!DOCTYPE svg PUBLIC "-//W3C//DTD SVG 20010904//EN"
 "http://www.w3.org/TR/2001/REC-SVG-20010904/DTD/svg10.dtd">
<svg version="1.0" xmlns="http://www.w3.org/2000/svg"
 width="150.000000pt" height="150.000000pt" viewBox="0 0 150.000000 150.000000"
 preserveAspectRatio="xMidYMid meet">
<metadata>
Created by potrace 1.15, written by Peter Selinger 2001-2017
</metadata>
<g transform="translate(0.000000,150.000000) scale(0.100000,-0.100000)"
fill="#000000" stroke="none">
<path d="M1137 1221 c-90 -91 -97 -109 -56 -132 16 -8 28 -2 69 37 l50 47 0
-399 0 -398 -43 42 c-46 45 -80 53 -96 23 -13 -23 0 -40 95 -135 37 -36 75
-66 84 -66 20 0 180 162 180 182 0 20 -21 38 -43 38 -11 0 -36 -17 -57 -38
l-37 -39 -7 282 c-4 155 -4 330 0 389 l7 106 43 -40 c24 -22 48 -40 53 -40 14
0 41 29 41 43 0 15 -171 187 -186 187 -6 0 -50 -40 -97 -89z"/>
<path d="M70 1260 c0 -36 3 -40 25 -40 21 0 25 -5 25 -30 0 -25 -4 -30 -25
-30 -18 0 -25 -5 -25 -20 0 -15 7 -20 25 -20 18 0 25 -5 25 -20 0 -15 -7 -20
-25 -20 -18 0 -25 -5 -25 -20 0 -15 7 -20 25 -20 16 0 25 -6 25 -15 0 -9 -9
-15 -25 -15 -20 0 -25 -5 -25 -25 0 -20 5 -25 25 -25 16 0 25 -6 25 -15 0 -9
-9 -15 -25 -15 -18 0 -25 -5 -25 -20 0 -15 7 -20 25 -20 16 0 25 -6 25 -15 0
-9 -9 -15 -25 -15 -18 0 -25 -5 -25 -20 0 -15 7 -20 25 -20 32 0 34 -27 3 -32
-15 -2 -24 -11 -26 -25 -3 -19 1 -23 22 -23 16 0 26 -6 26 -15 0 -9 -9 -15
-25 -15 -18 0 -25 -5 -25 -20 0 -15 7 -20 25 -20 16 0 25 -6 25 -15 0 -9 -9
-15 -25 -15 -18 0 -25 -5 -25 -20 0 -15 7 -20 25 -20 16 0 25 -6 25 -15 0 -9
-9 -15 -25 -15 -18 0 -25 -5 -25 -20 0 -15 7 -20 25 -20 32 0 34 -27 3 -32
-31 -4 -31 -42 0 -46 31 -5 29 -32 -3 -32 -20 0 -25 -5 -25 -25 0 -20 5 -25
25 -25 16 0 25 -6 25 -15 0 -9 -9 -15 -25 -15 -18 0 -25 -5 -25 -20 0 -15 7
-20 25 -20 16 0 25 -6 25 -15 0 -9 -9 -15 -25 -15 -18 0 -25 -5 -25 -20 0 -20
7 -20 435 -20 428 0 435 0 435 20 0 11 -7 20 -15 20 -8 0 -15 7 -15 15 0 8 7
15 15 15 8 0 15 9 15 20 0 11 -7 20 -15 20 -8 0 -15 7 -15 15 0 8 7 15 15 15
9 0 15 9 15 25 0 16 -6 25 -15 25 -8 0 -15 7 -15 15 0 8 7 15 15 15 9 0 15 9
15 25 0 16 -6 25 -15 25 -8 0 -15 7 -15 15 0 8 7 15 15 15 8 0 15 9 15 20 0
11 -7 20 -15 20 -8 0 -15 7 -15 15 0 8 7 15 15 15 8 0 15 9 15 20 0 11 -7 20
-15 20 -8 0 -15 7 -15 15 0 8 7 15 15 15 8 0 15 9 15 20 0 11 -7 20 -15 20 -8
0 -15 7 -15 15 0 8 7 15 15 15 9 0 15 9 15 25 0 16 -6 25 -15 25 -8 0 -15 7
-15 15 0 8 7 15 15 15 8 0 15 9 15 20 0 11 -7 20 -15 20 -8 0 -15 7 -15 15 0
8 7 15 15 15 8 0 15 9 15 20 0 11 -7 20 -15 20 -8 0 -15 7 -15 15 0 8 7 15 15
15 9 0 15 9 15 25 0 16 -6 25 -15 25 -8 0 -15 7 -15 15 0 8 7 15 15 15 8 0 15
9 15 20 0 11 -7 20 -15 20 -8 0 -15 9 -15 20 0 11 7 20 15 20 8 0 15 9 15 20
0 11 -7 20 -15 20 -10 0 -15 10 -15 30 0 20 5 30 15 30 11 0 15 11 15 40 l0
40 -435 0 -435 0 0 -40z m830 -70 l0 -30 -385 0 -385 0 0 30 0 30 385 0 385 0
0 -30z m0 -90 c0 -20 -7 -20 -385 -20 -378 0 -385 0 -385 20 0 20 7 20 385 20
378 0 385 0 385 -20z m0 -75 c0 -13 -49 -15 -385 -15 -336 0 -385 2 -385 15 0
13 49 15 385 15 336 0 385 -2 385 -15z m0 -80 c0 -13 -49 -15 -385 -15 -336 0
-385 2 -385 15 0 13 49 15 385 15 336 0 385 -2 385 -15z m0 -70 c0 -13 -49
-15 -385 -15 -336 0 -385 2 -385 15 0 13 49 15 385 15 336 0 385 -2 385 -15z
m0 -70 c0 -13 -49 -15 -385 -15 -336 0 -385 2 -385 15 0 13 49 15 385 15 336
0 385 -2 385 -15z m0 -80 c0 -13 -49 -15 -385 -15 -336 0 -385 2 -385 15 0 13
49 15 385 15 336 0 385 -2 385 -15z m0 -70 c0 -13 -49 -15 -385 -15 -336 0
-385 2 -385 15 0 13 49 15 385 15 336 0 385 -2 385 -15z m0 -70 c0 -13 -49
-15 -385 -15 -336 0 -385 2 -385 15 0 13 49 15 385 15 336 0 385 -2 385 -15z
m0 -70 c0 -13 -49 -15 -385 -15 -336 0 -385 2 -385 15 0 13 49 15 385 15 336
0 385 -2 385 -15z m0 -80 c0 -13 -49 -15 -385 -15 -336 0 -385 2 -385 15 0 13
49 15 385 15 336 0 385 -2 385 -15z m0 -80 c0 -13 -49 -15 -385 -15 -336 0
-385 2 -385 15 0 13 49 15 385 15 336 0 385 -2 385 -15z m0 -70 c0 -13 -49
-15 -385 -15 -336 0 -385 2 -385 15 0 13 49 15 385 15 336 0 385 -2 385 -15z"/>
</g>
</svg>
