<?xml version="1.0" standalone="no"?>
<!DOCTYPE svg PUBLIC "-//W3C//DTD SVG 20010904//EN"
 "http://www.w3.org/TR/2001/REC-SVG-20010904/DTD/svg10.dtd">
<svg version="1.0" xmlns="http://www.w3.org/2000/svg"
 width="370.000000pt" height="373.000000pt" viewBox="0 0 370.000000 373.000000"
 preserveAspectRatio="xMidYMid meet">

<g transform="translate(0.000000,373.000000) scale(0.100000,-0.100000)"
fill="#000000" stroke="none">
<path d="M1910 3370 c-888 -130 -1631 -240 -1651 -243 -20 -4 -53 -22 -75 -41
-177 -151 -191 -646 -27 -975 73 -148 166 -230 260 -231 21 -1 743 104 1605
232 1157 172 1568 236 1568 246 0 9 -10 11 -32 7 -37 -6 -2647 -395 -2654
-395 -2 0 11 21 30 48 45 62 73 136 87 225 16 111 18 117 36 117 14 0 15 2 1
18 -10 10 -17 46 -21 95 l-5 77 59 0 c38 0 58 4 54 10 -3 6 -30 10 -60 10
l-53 0 -10 58 c-10 56 -10 58 21 89 36 38 29 58 -8 23 -14 -13 -26 -22 -28
-19 -2 2 -13 38 -26 79 -49 157 -140 299 -225 351 -21 13 -26 20 -15 23 8 2
639 95 1404 206 765 111 1402 204 1418 207 38 8 34 23 -5 22 -18 -1 -760 -108
-1648 -239z m-1171 -225 c84 -43 196 -222 237 -377 l18 -67 -24 -26 c-28 -29
-19 -47 10 -20 11 10 20 14 20 9 1 -5 5 -28 9 -51 7 -34 5 -43 -5 -43 -8 0
-14 -4 -14 -10 0 -5 6 -10 14 -10 10 0 15 -17 18 -62 2 -35 2 -65 1 -67 -2 -3
-17 8 -33 24 -44 42 -50 21 -7 -23 31 -31 37 -45 37 -79 0 -120 -71 -310 -133
-357 -26 -19 -60 -28 -177 -45 -80 -12 -156 -24 -170 -27 -25 -5 -24 -5 7 28
103 107 147 362 108 622 -37 242 -130 436 -251 522 -26 19 -41 34 -33 35 8 0
66 9 129 19 145 22 204 24 239 5z m-374 -51 c37 -17 125 -106 144 -144 l12
-25 -18 25 c-65 91 -138 140 -207 140 -44 0 -69 -12 -115 -54 l-35 -31 23 29
c51 69 129 92 196 60z m27 -49 c170 -112 288 -528 234 -825 -37 -204 -125
-307 -242 -286 -59 12 -151 110 -203 217 -114 236 -135 591 -47 784 62 136
157 177 258 110z m158 -169 c0 -12 -5 -7 -19 24 -11 24 -11 24 3 6 9 -11 16
-24 16 -30z m107 -448 c-3 -8 -6 -5 -6 6 -1 11 2 17 5 13 3 -3 4 -12 1 -19z
m0 -105 c-2 -16 -4 -3 -4 27 0 30 2 43 4 28 2 -16 2 -40 0 -55z m-10 -105 c-3
-7 -5 -2 -5 12 0 14 2 19 5 13 2 -7 2 -19 0 -25z m-10 -50 c-3 -8 -6 -5 -6 6
-1 11 2 17 5 13 3 -3 4 -12 1 -19z m-50 -145 c-39 -75 -86 -115 -145 -121 -54
-5 -112 18 -147 59 l-20 24 25 -21 c40 -34 66 -44 117 -44 30 0 60 7 80 20 33
20 88 87 99 122 3 11 8 17 11 15 2 -3 -7 -27 -20 -54z m-326 -20 c13 -16 12
-17 -3 -4 -10 7 -18 15 -18 17 0 8 8 3 21 -13z"/>
<path d="M748 2864 c-54 -29 -54 -123 0 -176 43 -43 98 -48 140 -13 28 24 32
33 32 77 0 45 -4 54 -39 89 -43 43 -84 50 -133 23z m125 -32 c75 -76 17 -198
-76 -158 -46 19 -69 49 -73 98 -9 91 81 127 149 60z"/>
<path d="M852 2558 c2 -12 10 -23 18 -23 22 0 19 39 -3 43 -15 3 -18 -1 -15
-20z"/>
<path d="M814 2427 c-30 -28 -37 -42 -41 -83 -5 -43 -2 -54 22 -82 22 -26 34
-32 65 -32 49 0 95 37 111 90 34 112 -73 185 -157 107z m121 -2 c73 -72 -27
-226 -110 -171 -56 37 -53 120 6 170 38 33 73 33 104 1z"/>
<path d="M1918 1662 c-970 -147 -1618 -250 -1618 -256 0 -7 36 -11 98 -11 96
0 101 -1 183 -42 52 -26 116 -70 167 -115 117 -102 145 -118 213 -118 57 0
2616 384 2626 394 4 3 4 9 0 12 -3 4 -590 -82 -1304 -190 -714 -108 -1311
-196 -1326 -196 -46 0 -99 28 -157 84 -95 91 -176 145 -261 176 -50 17 -51 18
-23 24 16 3 699 107 1519 231 820 123 1505 227 1523 230 39 7 43 25 5 24 -16
-1 -756 -112 -1645 -247z"/>
<path d="M1918 592 c-934 -142 -1618 -251 -1618 -257 0 -6 38 -10 98 -10 96 0
101 -1 183 -42 54 -27 116 -70 175 -121 113 -99 137 -112 211 -112 61 0 2610
383 2620 394 4 3 4 9 0 12 -3 3 -590 -82 -1304 -190 -714 -108 -1311 -196
-1326 -196 -45 0 -99 28 -152 79 -99 95 -181 151 -267 181 l-52 18 34 6 c19 4
705 108 1525 231 820 124 1502 228 1518 231 15 3 27 10 27 15 0 5 -12 8 -27 8
-16 -1 -756 -112 -1645 -247z"/>
</g>
</svg>
